<svg width="24" height="25" viewBox="0 0 24 25" fill="none" xmlns="http://www.w3.org/2000/svg">
<g id="Icon/Fill/checkmark">
<path d="M0 12.5C0 5.87258 5.37258 0.5 12 0.5C18.6274 0.5 24 5.87258 24 12.5C24 19.1274 18.6274 24.5 12 24.5C5.37258 24.5 0 19.1274 0 12.5Z" fill="url(#paint0_linear_768_12038)"/>
<path id="Mask" fill-rule="evenodd" clip-rule="evenodd" d="M9.86338 18.4999C9.58738 18.4999 9.32338 18.3859 9.13438 18.1849L4.27138 13.0059C3.89238 12.6039 3.91338 11.9709 4.31538 11.5929C4.71838 11.2149 5.35138 11.2349 5.72838 11.6369L9.85338 16.0279L18.2614 6.82587C18.6354 6.41687 19.2674 6.38987 19.6754 6.76187C20.0824 7.13387 20.1104 7.76687 19.7384 8.17387L10.6014 18.1739C10.4144 18.3799 10.1484 18.4979 9.87038 18.4999H9.86338Z" fill="white"/>
<mask id="mask0_768_12038" style="mask-type:alpha" maskUnits="userSpaceOnUse" x="4" y="6" width="16" height="13">
<path id="Mask_2" fill-rule="evenodd" clip-rule="evenodd" d="M9.86338 18.4999C9.58738 18.4999 9.32338 18.3859 9.13438 18.1849L4.27138 13.0059C3.89238 12.6039 3.91338 11.9709 4.31538 11.5929C4.71838 11.2149 5.35138 11.2349 5.72838 11.6369L9.85338 16.0279L18.2614 6.82587C18.6354 6.41687 19.2674 6.38987 19.6754 6.76187C20.0824 7.13387 20.1104 7.76687 19.7384 8.17387L10.6014 18.1739C10.4144 18.3799 10.1484 18.4979 9.87038 18.4999H9.86338Z" fill="white"/>
</mask>
<g mask="url(#mask0_768_12038)">
<g id="&#240;&#159;&#142;&#168; Color">
<rect id="Base" y="0.5" width="24" height="24" fill="#C8319F"/>
</g>
</g>
</g>
<defs>
<linearGradient id="paint0_linear_768_12038" x1="9.15" y1="24.5" x2="12.5575" y2="0.971758" gradientUnits="userSpaceOnUse">
<stop stop-color="#B12D91"/>
<stop offset="0.192708" stop-color="#CF339E"/>
<stop offset="1" stop-color="#EA73CC"/>
</linearGradient>
</defs>
</svg>
